HIERARCHY
ROOT Hips
{
	OFFSET -14.64140 90.27770 -84.91600
	CHANNELS 6 Xposition Yposition Zposition Zrotation Xrotation Yrotation
	JOINT Spine
	{
		OFFSET 0.00000 13.20850 -1.60436
		CHANNELS 3 Zrotation Xrotation Yrotation
		JOINT Spine1
		{
			OFFSET 0.00000 8.61716 0.00000
			CHANNELS 3 Zrotation Xrotation Yrotation
			JOINT Spine2
			{
				OFFSET 0.00000 8.61717 0.00000
				CHANNELS 3 Zrotation Xrotation Yrotation
				JOINT Spine3
				{
					OFFSET 0.00000 8.61717 0.00000
					CHANNELS 3 Zrotation Xrotation Yrotation
					JOINT Neck
					{
						OFFSET 0.00000 11.07920 1.10792
						CHANNELS 3 Zrotation Xrotation Yrotation
						JOINT Neck1
						{
							OFFSET 0.00000 7.08032 0.00000
							CHANNELS 3 Zrotation Xrotation Yrotation
							JOINT Head
							{
								OFFSET 0.00000 7.08031 0.00000
								CHANNELS 3 Zrotation Xrotation Yrotation
								End site
								{
									OFFSET 0.00000 0.00000 0.00000
								}
							}
						}
					}
					JOINT RightShoulder
					{
						OFFSET -0.01000 7.91373 5.19711
						CHANNELS 3 Zrotation Xrotation Yrotation
						JOINT RightArm
						{
							OFFSET -18.41580 0.00000 0.00000
							CHANNELS 3 Zrotation Xrotation Yrotation
							JOINT RightForeArm
							{
								OFFSET -29.11090 0.00000 0.00000
								CHANNELS 3 Zrotation Xrotation Yrotation
								JOINT RightHand
								{
									OFFSET -24.65040 0.00000 0.00000
									CHANNELS 3 Zrotation Xrotation Yrotation
									JOINT RightHandThumb1
									{
										OFFSET -5.35114 -0.85590 3.97906
										CHANNELS 3 Zrotation Xrotation Yrotation
										JOINT RightHandThumb2
										{
											OFFSET -4.52789 0.00000 0.00000
											CHANNELS 3 Zrotation Xrotation Yrotation
											JOINT RightHandThumb3
											{
												OFFSET -2.46976 0.00000 0.00000
												CHANNELS 3 Zrotation Xrotation Yrotation
												End site
												{
													OFFSET 0.00000 0.00000 0.00000
												}
											}
										}
									}
									JOINT RightHandIndex1
									{
										OFFSET -14.26970 0.00000 2.88139
										CHANNELS 3 Zrotation Xrotation Yrotation
										JOINT RightHandIndex2
										{
											OFFSET -5.48836 0.00000 0.00000
											CHANNELS 3 Zrotation Xrotation Yrotation
											JOINT RightHandIndex3
											{
												OFFSET -3.01859 0.00000 0.00000
												CHANNELS 3 Zrotation Xrotation Yrotation
												End site
												{
													OFFSET 0.00000 0.00000 0.00000
												}
											}
										}
									}
									JOINT RightHandMiddle1
									{
										OFFSET -14.26970 0.00000 -0.09147
										CHANNELS 3 Zrotation Xrotation Yrotation
										JOINT RightHandMiddle2
										{
											OFFSET -6.17441 0.00000 0.00000
											CHANNELS 3 Zrotation Xrotation Yrotation
											JOINT RightHandMiddle3
											{
												OFFSET -3.56743 0.00000 0.00000
												CHANNELS 3 Zrotation Xrotation Yrotation
												End site
												{
													OFFSET 0.00000 0.00000 0.00000
												}
											}
										}
									}
									JOINT RightHandRing1
									{
										OFFSET -12.69180 0.00000 -3.06433
										CHANNELS 3 Zrotation Xrotation Yrotation
										JOINT RightHandRing2
										{
											OFFSET -5.62556 0.00000 0.00000
											CHANNELS 3 Zrotation Xrotation Yrotation
											JOINT RightHandRing3
											{
												OFFSET -3.56744 0.00000 0.00000
												CHANNELS 3 Zrotation Xrotation Yrotation
												End site
												{
													OFFSET 0.00000 0.00000 0.00000
												}
											}
										}
									}
									JOINT RightHandPinky1
									{
										OFFSET -11.11390 0.00000 -6.03719
										CHANNELS 3 Zrotation Xrotation Yrotation
										JOINT RightHandPinky2
										{
											OFFSET -4.52789 0.00000 0.00000
											CHANNELS 3 Zrotation Xrotation Yrotation
											JOINT RightHandPinky3
											{
												OFFSET -2.46976 0.00000 0.00000
												CHANNELS 3 Zrotation Xrotation Yrotation
												End site
												{
													OFFSET 0.00000 0.00000 0.00000
												}
											}
										}
									}
								}
							}
						}
					}
					JOINT LeftShoulder
					{
						OFFSET 0.01000 7.91373 5.19711
						CHANNELS 3 Zrotation Xrotation Yrotation
						JOINT LeftArm
						{
							OFFSET 18.41580 0.00000 0.00000
							CHANNELS 3 Zrotation Xrotation Yrotation
							JOINT LeftForeArm
							{
								OFFSET 29.11090 0.00000 0.00000
								CHANNELS 3 Zrotation Xrotation Yrotation
								JOINT LeftHand
								{
									OFFSET 24.65040 0.00000 0.00000
									CHANNELS 3 Zrotation Xrotation Yrotation
									JOINT LeftHandThumb1
									{
										OFFSET 5.35114 -0.85590 3.97906
										CHANNELS 3 Zrotation Xrotation Yrotation
										JOINT LeftHandThumb2
										{
											OFFSET 4.52789 0.00000 0.00000
											CHANNELS 3 Zrotation Xrotation Yrotation
											JOINT LeftHandThumb3
											{
												OFFSET 2.46977 0.00000 0.00000
												CHANNELS 3 Zrotation Xrotation Yrotation
												End site
												{
													OFFSET 0.00000 0.00000 0.00000
												}
											}
										}
									}
									JOINT LeftHandIndex1
									{
										OFFSET 14.26970 0.00000 2.88139
										CHANNELS 3 Zrotation Xrotation Yrotation
										JOINT LeftHandIndex2
										{
											OFFSET 5.48836 0.00000 0.00000
											CHANNELS 3 Zrotation Xrotation Yrotation
											JOINT LeftHandIndex3
											{
												OFFSET 3.01859 0.00000 0.00000
												CHANNELS 3 Zrotation Xrotation Yrotation
												End site
												{
													OFFSET 0.00000 0.00000 0.00000
												}
											}
										}
									}
									JOINT LeftHandMiddle1
									{
										OFFSET 14.26970 0.00000 -0.09147
										CHANNELS 3 Zrotation Xrotation Yrotation
										JOINT LeftHandMiddle2
										{
											OFFSET 6.17440 0.00000 0.00000
											CHANNELS 3 Zrotation Xrotation Yrotation
											JOINT LeftHandMiddle3
											{
												OFFSET 3.56744 0.00000 0.00000
												CHANNELS 3 Zrotation Xrotation Yrotation
												End site
												{
													OFFSET 0.00000 0.00000 0.00000
												}
											}
										}
									}
									JOINT LeftHandRing1
									{
										OFFSET 12.69180 0.00000 -3.06433
										CHANNELS 3 Zrotation Xrotation Yrotation
										JOINT LeftHandRing2
										{
											OFFSET 5.62556 0.00000 0.00000
											CHANNELS 3 Zrotation Xrotation Yrotation
											JOINT LeftHandRing3
											{
												OFFSET 3.56744 0.00000 0.00000
												CHANNELS 3 Zrotation Xrotation Yrotation
												End site
												{
													OFFSET 0.00000 0.00000 0.00000
												}
											}
										}
									}
									JOINT LeftHandPinky1
									{
										OFFSET 11.11390 0.00000 -6.03719
										CHANNELS 3 Zrotation Xrotation Yrotation
										JOINT LeftHandPinky2
										{
											OFFSET 4.52789 0.00000 0.00000
											CHANNELS 3 Zrotation Xrotation Yrotation
											JOINT LeftHandPinky3
											{
												OFFSET 2.46976 0.00000 0.00000
												CHANNELS 3 Zrotation Xrotation Yrotation
												End site
												{
													OFFSET 0.00000 0.00000 0.00000
												}
											}
										}
									}
								}
							}
						}
					}
					JOINT pCube4
					{
						OFFSET 0.00000 10.91090 1.10792
						CHANNELS 3 Zrotation Xrotation Yrotation
						End site
						{
							OFFSET 0.00000 0.00000 0.00000
						}
					}
				}
			}
		}
	}
	JOINT RightUpLeg
	{
		OFFSET -9.98441 0.00000 0.00000
		CHANNELS 3 Zrotation Xrotation Yrotation
		JOINT RightLeg
		{
			OFFSET 0.00000 -42.11790 0.00000
			CHANNELS 3 Zrotation Xrotation Yrotation
			JOINT RightFoot
			{
				OFFSET 0.00000 -45.00020 -0.00001
				CHANNELS 3 Zrotation Xrotation Yrotation
				JOINT RightForeFoot
				{
					OFFSET 0.00000 -3.74820 0.00000
					CHANNELS 3 Zrotation Xrotation Yrotation
					JOINT RightToeBase
					{
						OFFSET 0.00000 0.06325 14.43120
						CHANNELS 3 Zrotation Xrotation Yrotation
						End site
						{
							OFFSET 0.00000 0.00000 0.00000
						}
					}
				}
			}
		}
	}
	JOINT LeftUpLeg
	{
		OFFSET 9.98441 0.00000 0.00000
		CHANNELS 3 Zrotation Xrotation Yrotation
		JOINT LeftLeg
		{
			OFFSET 0.00000 -42.11800 0.00000
			CHANNELS 3 Zrotation Xrotation Yrotation
			JOINT LeftFoot
			{
				OFFSET 0.00000 -45.00070 0.00000
				CHANNELS 3 Zrotation Xrotation Yrotation
				JOINT LeftForeFoot
				{
					OFFSET 0.00000 -3.74824 0.00000
					CHANNELS 3 Zrotation Xrotation Yrotation
					JOINT LeftToeBase
					{
						OFFSET 0.00000 0.06325 14.43110
						CHANNELS 3 Zrotation Xrotation Yrotation
						End site
						{
							OFFSET 0.00000 0.00000 0.00000
						}
					}
				}
			}
		}
	}
}
MOTION
Frames: 4
Frame Time: 0.050000
-0.01926364456956554 0.007339031874413382 -0.0450983575885401 0.04019386764129066 -0.04311199348305006 0.03896462355407712 -3.1494266808389844 -0.7267028460985534 -0.6546885959378104 -0.9736834127577748 3.580703589938418 0.42900683455900085 -1.2411091220519725 -2.183440906732417 -1.3368979835223516 -0.051393423725212516 0.24070285660851756 -0.8531294619869064 -0.5989495021244947 13.289984217371847 1.8221347117542022 -0.09574384112241575 0.9109312267763396 2.423455145303813 -0.6301114016728747 -13.031476796620192 0.2815569481617363 -4.871776107854372 1.7295925147928317 -13.855225430881793 66.72551347092114 11.22844456254182 15.279181785433407 27.106518141939027 -0.9939439801290273 83.7749720909573 16.471829250208632 -0.4651594055551221 -3.120277692915824 4.541294854844208 -0.12976557188959037 -1.592491085163087 -0.03716245571672346 -0.018036074266884236 -56.1928237527372 0.04374914546487932 -0.03345715578764609 -56.27174367119324 -38.737788897917056 -0.018189483395302453 0.018779760189959492 -0.04378940422833904 0.016325058499283892 0.02387597944574626 -0.015983927161501266 0.030931192776879685 -0.03682724830839029 -36.69610246764021 0.007844016923604159 0.03136575548109257 -0.02023027919182334 -0.012022468405329948 -0.026928032390056166 -0.028239984730373455 -0.029917353231649846 0.004333330758874216 -19.80770160253779 -0.006245525010642556 0.01930461764559825 0.012610855324903662 -0.027143203877287105 -0.042845970827937965 -0.0430465263837355 -0.006001678982952927 -0.007253111622668925 24.0650481486118 -0.024096399367667443 -0.024560592495834525 28.837526612741186 0.010359541101632399 -0.0105359918812401 28.891563239070745 0.046146382608930905 0.03959115598947133 7.311315188516572 1.5483362049715454 12.796157905609903 -67.92741225403672 5.606718941999145 -17.970240890358646 -22.22606377048846 -15.20207454855014 -49.136350162957804 -3.7229067827026716 -0.38754063851044634 0.09596617900849316 -0.474773234986315 0.05741162972773147 -8.154471444664695 -0.018268155850223917 0.01708545145018252 44.5580045704336 -0.007462339640457825 0.01842372959788126 44.592082388019605 12.442517697432194 0.01959551632617476 -0.041783747624214336 0.040798326834028356 -0.02050291481473008 -0.006466643295028045 0.020759742752199543 -0.011416362371969514 -0.01750422940420001 11.073440985178399 0.007673402952224993 0.017688004624085176 -0.021310456109319868 0.04545073319631168 0.0456851071110273 -0.03747616459778371 0.017798903237141162 0.03261167041373537 4.81729970638959 0.041057981736641415 0.04880482749293352 0.011606789280261296 -0.022403797969297184 0.048250060322792984 0.04324432056033322 -0.02311392843146053 0.009085781266244066 -5.594823786637503 0.041079427324355905 -0.04520115901241209 -6.752508798835274 -0.030846652043347876 0.0048560036614902335 -6.733161736024504 0.013453416215749678 0.027872675481100395 0.009162504248305038 0.003868223833165883 -0.03813900161207534 8.056704139854453 3.483853639254663 -19.188070079391675 -0.04506823617386342 10.413558254148262 -0.01945027468666691 -5.670917569224752 -15.630446774096402 3.209832111742133 0.017318016943609776 -0.04445602341375084 -0.0430340574541757 0.007261466745752931 4.664381918798612 -0.04894609212706821 12.427977613192084 -8.235024684334777 6.913592031499284 0.01012082178113716 46.37288235491477 -0.037251196026572286 -4.336040046412773 -14.733677114353341 -3.8063649092537166 0.013809040979468877 0.029687080799815937 0.0019263724501735874 0.02491561172551031 -10.779703872717445 -0.033709572197663705 
0.013861903711249174 0.022111497530307327 0.023202977676162743 0.0029304404938829197 -0.026836518720883714 0.009471543400270135 -2.9422771566059445 -0.6621963461545207 -0.7776558589821115 -1.0703999015118668 3.6221098822053226 0.38376126314194337 -1.1680217981035224 -2.192124947969763 -1.8885576913326754 0.14136851888195678 0.2626001980997393 -0.9492373799976278 -0.7846986128922552 13.129852129309661 1.954860228711854 -0.17027399739375995 0.7807397814751146 3.1809654431221643 -0.7968656719460286 -13.472478226668434 0.3546552805678609 -4.760590270776915 1.6419673705657183 -14.246730335675123 67.06545913505278 9.558702844282744 12.190967903920798 28.70051698000126 -1.4857603196084905 85.96575754956496 15.90340792894334 -0.44206010501752074 -3.0416082590152005 4.540729631446733 -0.11798555842187747 -1.613388114693072 0.025173019253695084 -0.039549065968550096 -56.21375416946224 0.030581350212477224 -0.033116558499776544 -56.22685819317193 -38.77334400147919 0.014426262081122541 0.01908199246626059 -0.021198787129462243 -0.00972208781564492 0.025408220070665684 -0.029828279804860507 0.04492085489418091 0.013389886072766947 -36.73449041085691 0.025082493817524965 0.02882670182992299 0.032195647229219984 -0.016865059484847508 -0.03147204208014001 0.03913998093160255 -0.02867916797547721 0.010634382649427393 -19.772003806168726 0.033635532287780975 0.015854334317661006 0.007739343746030508 -0.008686504190105243 -0.03510061444485284 -0.036535945802920175 0.012653649165063703 -0.017575893060095223 24.047572472611886 0.02047309203020414 0.007230871834441809 28.846808656312113 -0.02695919322978206 -0.02231243545848131 28.823262980844973 0.025683594076376538 0.02384743573400308 7.826175987476573 1.6442013264135835 12.754724956020322 -68.47379957966756 2.361479513297061 -18.73460964329794 -24.09849557516415 -15.541442379787618 -50.343525751544504 -1.6509910229753568 -0.3385210594713606 -0.43015544701028763 -0.5135920039633041 0.08883335551334058 -8.161238674221575 -0.0322550806750996 0.01759198304836069 44.59646661658108 -2.880390255530187e-05 0.0035881063669154552 44.55424136700977 12.465014057360676 -0.025266906937352323 0.04648795959111774 -0.012148094772137942 -0.013837465115530549 -0.0005479374526628532 -0.03606726296080597 -0.011519957936731348 -0.01518379738778294 11.117514374306127 -0.020129163903760277 0.007376228106675168 0.00043581039083011324 -0.02048540330321063 0.01369915552361825 0.04756946256940393 -0.030761083849292527 -0.022949057397679155 4.73881784790123 0.013053648000717203 0.025390631205725118 0.013298309710088212 -0.00024401762663245078 -0.019426559619437598 0.03635062144476509 -0.026073622805026817 0.02739780369277691 -5.5872270392616645 -0.020481080752080535 -0.03555369655117906 -6.707395369212827 -0.0037408534311576124 -0.0336220872704022 -6.751635628316896 0.002722207719359929 -0.00874023753229397 -0.019861303351560534 0.01787672302446132 -0.006353478641777185 8.08460666390278 3.5035984343120563 -19.264920818869733 -0.010979915614153476 10.386159819618632 -0.013503042756568929 -5.583197748028732 -15.671202067902025 3.1524125176268836 0.045058042718521825 0.026419087584404095 -0.016202184825260875 0.015232410030765222 4.735643060033947 0.043631708821859905 12.416250969498973 -8.236617052925878 6.8447797236095 0.018472372141369396 46.400842983723635 0.010061759747791126 -4.308573643035899 -14.734906405853618 -3.8466136697903957 -0.008651723393254016 0.023184603588015336 0.04177197010510023 0.02688682378291971 -10.753203689832223 -0.0009710412774370607 
0.03136543228762422 -0.04017058575383901 0.022855234860046432 -0.008438746431497038 0.03524207948507785 0.021669262461171214 -2.8197967628216576 -0.635167949607833 -0.8073520351146062 -1.043308576557727 3.648095909938464 0.3719743577240132 -1.1289703896750887 -2.2049163082468066 -2.273746648529017 0.20915739263323258 0.21694742106149326 -0.9770503038933144 -0.8456947025214395 12.873858423256284 2.1038756688516775 -0.29515162008899687 0.472615419816439 3.722121404490817 -0.9390846627972432 -13.813386722405294 0.37898504208965045 -4.688040460036269 1.6131268883918302 -14.631741620211566 67.73324906494042 8.494770964066253 9.121515364923477 29.24009040770366 -2.1504334801412153 88.02854952747701 15.595045339289644 -0.5006056517598786 -2.900651825249242 4.533223958518112 -0.1566368510325092 -1.6411824686455991 -0.03335018685298438 -0.0036752041012616888 -56.260823532330996 -0.04095145920683067 -0.03400461764091978 -56.25252218072259 -38.74423354052979 -0.0010370980513449762 -0.04617633200348198 -0.005754949634244989 0.020809529023912157 0.04835588627566785 -0.04126539564715785 -0.03920142939550255 0.0059868043362825175 -36.653911083224614 0.01650781477112047 0.021021094180896167 0.002199125031022215 -0.012948566644401286 0.044312510018056604 0.03624318367455885 -0.012738907899265883 -0.01374745256290017 -19.71687623941277 -0.04493857215762678 0.020510754477128676 0.00442367889856284 -0.0012397328335367235 0.025293795582728592 -0.0013729983604327078 -0.02754968926807036 0.01307746068024328 24.0727917404737 -0.0041764856584871985 0.008896951378704455 28.873590145681067 0.04818239610901299 0.04685291346524604 28.881260606947226 0.0355271220102131 0.02580379965726933 8.073610747226775 1.6805439196526961 12.831365986405705 -69.40347849979881 0.9253670081731049 -18.309716093654636 -25.496185894861597 -15.222540540946635 -51.82882348609324 -0.29689363601830066 -0.17321943591908026 -0.7781716829678784 -0.4258698490468873 0.025725613813789613 -8.13731928539787 -0.012218159830858607 0.01160507505526046 44.60553130764706 -0.0006901189367638605 -0.04352835437598479 44.54002427747761 12.48325395750479 0.02237951708234356 -0.0446854147371245 0.017383442056844136 0.012820683864276922 -0.03891035424153555 0.008776807805537986 -0.015176964122387757 -0.0017396613501169508 11.109177044746188 -0.029174189215295698 -0.03228733326896639 -0.04534047248225074 -0.0376233904402058 -0.018930540148682132 0.04899641827715697 -0.029552718697838983 -0.02580193080553879 4.722862555270917 0.045450679261020255 -0.02057815396828959 0.02157681928600325 -0.005752193452008344 0.005122660216463626 0.04289785985591259 0.01914427580949481 0.03941139819387484 -5.5766544552870885 0.019338569958957837 -0.012146983456991332 -6.758616967981606 -0.015043867414059562 -0.01513990912926068 -6.7122853051499245 0.0005872479022549128 -0.03361801440077005 0.0017570802075372652 0.03354270079785219 0.0022375382191757083 8.021400827725895 3.50521458328296 -19.249806147331416 -0.003138315898637034 10.346847860815112 0.001799556391871078 -5.613003850388734 -15.68685711407354 3.2257933970332124 -0.037582736923918635 -0.04206744225795594 0.006668522119868122 -0.04763085900082046 4.7082582328247735 -0.008841163247652434 12.485957513061557 -8.252194995560139 6.8562454934664645 0.041586627222553386 46.38563256725919 -0.0019114808959059977 -4.332909367236598 -14.70861523720409 -3.816064303567995 0.03420124820134136 0.04091883546642763 -0.030217142549494834 0.0002480627827123791 -10.70587217031427 0.028393530328888517 
0.026272892544460715 -0.048597090945899805 -0.043367623543529875 0.006503727516861273 -0.003316193785132081 -0.021353679663879414 -2.6795207982066254 -0.6031254119627297 -0.8177775690573879 -1.0808605583630353 3.643111565552372 0.40065168874082396 -1.1569517341647697 -2.0759093317753843 -2.428622407428936 0.2768575902546397 0.28372939357529237 -0.9829938010970434 -0.8637891025751057 12.684539561052665 2.097453714954756 -0.3013630311992471 0.3422232973653233 4.124409501330364 -0.9514488821742166 -14.201978089900974 0.3882560669020176 -4.626366235323317 1.6804265012222268 -15.040694714923783 68.53070743323353 8.253080166555735 6.214719437649057 28.598385926143347 -2.617804519809054 89.26436287005875 15.553537670351853 -0.49939604720215225 -2.9028002785674554 4.547293384117444 -0.08991945754436831 -1.5672251057599507 -0.040913485461783736 -0.030197214373113835 -56.28252723332888 -0.015099287186758868 0.002760238948240388 -56.219689979747706 -38.801523709947205 0.017284121531678246 -0.023590976972482126 -0.009029081634729166 0.03152733063205887 0.005663645213831969 -0.016437345873088094 0.027323818286489537 -0.0459861560837017 -36.73060064120348 -0.03241224917330072 -0.03428565191769903 0.006028491637719259 -0.015494374935404176 0.0008264358940314578 -0.03292004890184014 -0.034209957130276115 0.014908074258842482 -19.74440716905869 0.023796163094863185 -0.005311794627808785 0.019316479343614464 0.018235856703338795 -0.021356320622167125 -0.0026134747993950083 -0.04905734957565616 -0.0433123701524349 24.028962745282904 0.032721791810302846 0.024579884500792216 28.82846677390291 0.023229119498706572 -0.017162322389046615 28.86477263638785 -0.0015554969355510212 -0.007929422845120578 8.095692066924844 1.714313076036599 12.897512250944496 -70.45353024973028 1.2588070076133644 -16.73209935086252 -26.70344774396792 -14.24196329649393 -53.39691516411618 0.4021572809179255 -0.0937364622639231 -0.9978432474553514 -0.5153126934688643 0.10670025171427293 -8.107985939050373 -0.008338528444005688 -0.02841792794134676 44.60492718322567 -0.005557273298734513 0.04091406126439106 44.59898686513198 12.500965113156344 -0.049742197052846375 0.017867226282480424 -0.03766470801856528 0.02456281585410138 0.0043047473168912045 -0.016510581564829693 0.013433640365320751 -0.025538304907990632 11.091350456104543 -0.0014589141198580718 0.033496008056563685 0.041301049419978066 0.043298703853589034 -0.024336863069590715 0.003910144898137967 -0.012299253295178147 0.02117426692930248 4.759267489545923 0.03711078424319262 -0.048413771880183754 0.03260253810074166 0.03334089233237582 -0.02657058608860976 0.0021405603942471346 0.03074850674279974 -0.03163521880697209 -5.605188604226551 -0.005432340491882424 0.00912343764613909 -6.734684800689614 0.048044359479681886 -0.027233843064101693 -6.691569620154394 0.023652016759111293 0.019697028142472088 -0.000741805123978509 0.019986871799360675 0.04812724308228035 8.068127617037351 3.4994433612081277 -19.268869436897756 -0.017860779719082724 10.439251209625683 0.04782571663903422 -5.598322226000575 -15.685608311253988 3.2333624456571193 -0.022058347110159224 0.013988053499930798 -0.02770772449449268 -0.028882013090330977 4.718641511681316 -0.020588260144920732 12.482321409685198 -8.226217271132269 6.904134084982475 0.03261986272860855 46.38433406222262 -0.03532012106867239 -4.356829397202454 -14.782702877478032 -3.8433027556626964 0.018613339673049473 -0.004976918755555971 -0.01662416678080123 0.014374558091488698 -10.769684863092358 0.033204207030176146 
